<svg id="Calque_1" data-name="Calque 1" xmlns="http://www.w3.org/2000/svg" viewBox="0 0 20 18.19"><title>eyeHidden</title><path d="M285.54,414.61c-.8-.64-1.62-1.23-2.35-1.91a30,30,0,0,1-2.24-2.41.74.74,0,0,1,0-.72,15.77,15.77,0,0,1,7.51-5.64,8.37,8.37,0,0,1,6.58.75l.33.15,3.67-3.68c.11-.11.2-.27.33-.3s.44-.06.53,0a.55.55,0,0,1,0,.53,4.16,4.16,0,0,1-.61.65l-3.19,3.18a21.26,21.26,0,0,1,1.77,1.38c.94.9,1.83,1.85,2.73,2.79.23.24.37.5.1.83a16.55,16.55,0,0,1-7.11,5.49,8.26,8.26,0,0,1-6.75-.51.64.64,0,0,0-.89.16c-1.08,1.12-2.18,2.2-3.27,3.29-.12.12-.24.28-.39.31a.56.56,0,0,1-.48-.1.53.53,0,0,1,0-.49,4,4,0,0,1,.57-.6Zm-3.82-4.76a16,16,0,0,0,4.24,3.91.48.48,0,0,0,.42,0c.35-.26.68-.55,1-.82a4.62,4.62,0,0,1,.1-6.13c1.58-1.7,3.73-1.85,6.23-.43l.88-.94a7.46,7.46,0,0,0-5-.9C286.21,405.2,283.86,407.39,281.72,409.85Zm5.31,4.54a7.44,7.44,0,0,0,5.05.86c3.34-.69,5.66-2.87,7.82-5.33a17.57,17.57,0,0,0-4.35-3.95l-1.2,1.07a4.57,4.57,0,0,1-6.42,6.41Zm.86-2.28L293,407a3.64,3.64,0,0,0-5.11,5.11Zm5.83-4.38-5.09,5.1a3.64,3.64,0,0,0,5.09-5.1Z" transform="translate(-280.84 -400.81)"/></svg>