<svg id="Calque_1" data-name="Calque 1" xmlns="http://www.w3.org/2000/svg" viewBox="0 0 359.8 226.53"><title>eyeVisible</title><path d="M301.7,237.46c30.64,0,58.56,9.61,84.73,24.76,36.39,21.06,66.43,49.36,92.49,82.11,3,3.83,3.92,7.67.67,11.77-31.36,39.5-67.82,72.85-114.38,93.75-48.69,21.86-96.17,17.63-142.38-7.55-39.09-21.3-71-51-98.44-85.66-2.8-3.53-3.64-7.2-.68-10.91,34.57-43.34,74.66-79.65,127.64-99.28A143.56,143.56,0,0,1,301.7,237.46Zm163,113.36c-2.71-3.28-5.07-6.27-7.58-9.13-26.8-30.62-57-57-94.13-74.51-40.06-18.93-80.21-19.34-120.55-.83-25.56,11.72-48.14,27.82-68.38,47.14-12.24,11.69-23.68,24.22-35.71,36.59,29.41,35.09,61.58,64.77,102.36,84.11,42.31,20.07,84.23,19.1,125.92-1.67C405.52,413.12,436.56,384.25,464.66,350.82Z" transform="translate(-121.86 -237.46)"/><path d="M301.8,269.67A81.21,81.21,0,0,1,383,350.6c.18,44.67-36.63,81.37-81.49,81.25-44.56-.12-81.16-36.87-81-81.3A81.15,81.15,0,0,1,301.8,269.67Zm65.87,81a65.88,65.88,0,1,0-66.14,66A65.68,65.68,0,0,0,367.67,350.69Z" transform="translate(-121.86 -237.46)"/></svg>